G04 #@! TF.FileFunction,Soldermask,Bot*
%FSLAX46Y46*%
G04 Gerber Fmt 4.6, Leading zero omitted, Abs format (unit mm)*
G04 Created by KiCad (PCBNEW (2015-09-17 BZR 6202)-product) date Saturday, October 24, 2015 'PMt' 02:33:44 PM*
%MOMM*%
G01*
G04 APERTURE LIST*
%ADD10C,0.100000*%
%ADD11R,2.032000X1.727200*%
%ADD12O,2.032000X1.727200*%
%ADD13R,1.397000X1.397000*%
%ADD14C,1.397000*%
G04 APERTURE END LIST*
D10*
X226060000Y-24130000D02*
X226060000Y-172720000D01*
X226063993Y-24130000D02*
X24130000Y-24130000D01*
X24130000Y-172720000D02*
X226063993Y-172720000D01*
X24130000Y-24130000D02*
X24130000Y-172720000D01*
D11*
X33655000Y-34290000D03*
D12*
X33655000Y-36830000D03*
X33655000Y-39370000D03*
X33655000Y-41910000D03*
X33655000Y-44450000D03*
X33655000Y-46990000D03*
D11*
X84455000Y-43180000D03*
D12*
X84455000Y-45720000D03*
X84455000Y-48260000D03*
X84455000Y-50800000D03*
D11*
X84455000Y-57912000D03*
D12*
X84455000Y-60452000D03*
X84455000Y-62992000D03*
X84455000Y-65532000D03*
D13*
X38735000Y-50165000D03*
D14*
X36195000Y-50165000D03*
X33655000Y-50165000D03*
D11*
X28194000Y-27432000D03*
D12*
X28194000Y-29972000D03*
X28194000Y-32512000D03*
X28194000Y-35052000D03*
X28194000Y-37592000D03*
X28194000Y-40132000D03*
X28194000Y-42672000D03*
X28194000Y-45212000D03*
X28194000Y-47752000D03*
X28194000Y-50292000D03*
X28194000Y-52832000D03*
X28194000Y-55372000D03*
X28194000Y-57912000D03*
X28194000Y-60452000D03*
X28194000Y-62992000D03*
X28194000Y-65532000D03*
X28194000Y-68072000D03*
D11*
X33655000Y-85090000D03*
D12*
X33655000Y-87630000D03*
X33655000Y-90170000D03*
X33655000Y-92710000D03*
X33655000Y-95250000D03*
X33655000Y-97790000D03*
D11*
X84455000Y-93980000D03*
D12*
X84455000Y-96520000D03*
X84455000Y-99060000D03*
X84455000Y-101600000D03*
D11*
X84455000Y-108712000D03*
D12*
X84455000Y-111252000D03*
X84455000Y-113792000D03*
X84455000Y-116332000D03*
D13*
X38735000Y-100965000D03*
D14*
X36195000Y-100965000D03*
X33655000Y-100965000D03*
D11*
X28194000Y-78232000D03*
D12*
X28194000Y-80772000D03*
X28194000Y-83312000D03*
X28194000Y-85852000D03*
X28194000Y-88392000D03*
X28194000Y-90932000D03*
X28194000Y-93472000D03*
X28194000Y-96012000D03*
X28194000Y-98552000D03*
X28194000Y-101092000D03*
X28194000Y-103632000D03*
X28194000Y-106172000D03*
X28194000Y-108712000D03*
X28194000Y-111252000D03*
X28194000Y-113792000D03*
X28194000Y-116332000D03*
X28194000Y-118872000D03*
D11*
X33655000Y-135890000D03*
D12*
X33655000Y-138430000D03*
X33655000Y-140970000D03*
X33655000Y-143510000D03*
X33655000Y-146050000D03*
X33655000Y-148590000D03*
D11*
X84455000Y-144780000D03*
D12*
X84455000Y-147320000D03*
X84455000Y-149860000D03*
X84455000Y-152400000D03*
D11*
X84455000Y-159512000D03*
D12*
X84455000Y-162052000D03*
X84455000Y-164592000D03*
X84455000Y-167132000D03*
D13*
X38735000Y-151765000D03*
D14*
X36195000Y-151765000D03*
X33655000Y-151765000D03*
D11*
X28194000Y-129032000D03*
D12*
X28194000Y-131572000D03*
X28194000Y-134112000D03*
X28194000Y-136652000D03*
X28194000Y-139192000D03*
X28194000Y-141732000D03*
X28194000Y-144272000D03*
X28194000Y-146812000D03*
X28194000Y-149352000D03*
X28194000Y-151892000D03*
X28194000Y-154432000D03*
X28194000Y-156972000D03*
X28194000Y-159512000D03*
X28194000Y-162052000D03*
X28194000Y-164592000D03*
X28194000Y-167132000D03*
X28194000Y-169672000D03*
D11*
X102235000Y-34290000D03*
D12*
X102235000Y-36830000D03*
X102235000Y-39370000D03*
X102235000Y-41910000D03*
X102235000Y-44450000D03*
X102235000Y-46990000D03*
D11*
X153035000Y-43180000D03*
D12*
X153035000Y-45720000D03*
X153035000Y-48260000D03*
X153035000Y-50800000D03*
D11*
X153035000Y-57912000D03*
D12*
X153035000Y-60452000D03*
X153035000Y-62992000D03*
X153035000Y-65532000D03*
D13*
X107315000Y-50165000D03*
D14*
X104775000Y-50165000D03*
X102235000Y-50165000D03*
D11*
X96774000Y-27432000D03*
D12*
X96774000Y-29972000D03*
X96774000Y-32512000D03*
X96774000Y-35052000D03*
X96774000Y-37592000D03*
X96774000Y-40132000D03*
X96774000Y-42672000D03*
X96774000Y-45212000D03*
X96774000Y-47752000D03*
X96774000Y-50292000D03*
X96774000Y-52832000D03*
X96774000Y-55372000D03*
X96774000Y-57912000D03*
X96774000Y-60452000D03*
X96774000Y-62992000D03*
X96774000Y-65532000D03*
X96774000Y-68072000D03*
D11*
X102235000Y-85090000D03*
D12*
X102235000Y-87630000D03*
X102235000Y-90170000D03*
X102235000Y-92710000D03*
X102235000Y-95250000D03*
X102235000Y-97790000D03*
D11*
X153035000Y-93980000D03*
D12*
X153035000Y-96520000D03*
X153035000Y-99060000D03*
X153035000Y-101600000D03*
D11*
X153035000Y-108712000D03*
D12*
X153035000Y-111252000D03*
X153035000Y-113792000D03*
X153035000Y-116332000D03*
D13*
X107315000Y-100965000D03*
D14*
X104775000Y-100965000D03*
X102235000Y-100965000D03*
D11*
X96774000Y-78232000D03*
D12*
X96774000Y-80772000D03*
X96774000Y-83312000D03*
X96774000Y-85852000D03*
X96774000Y-88392000D03*
X96774000Y-90932000D03*
X96774000Y-93472000D03*
X96774000Y-96012000D03*
X96774000Y-98552000D03*
X96774000Y-101092000D03*
X96774000Y-103632000D03*
X96774000Y-106172000D03*
X96774000Y-108712000D03*
X96774000Y-111252000D03*
X96774000Y-113792000D03*
X96774000Y-116332000D03*
X96774000Y-118872000D03*
D11*
X102235000Y-135890000D03*
D12*
X102235000Y-138430000D03*
X102235000Y-140970000D03*
X102235000Y-143510000D03*
X102235000Y-146050000D03*
X102235000Y-148590000D03*
D11*
X153035000Y-144780000D03*
D12*
X153035000Y-147320000D03*
X153035000Y-149860000D03*
X153035000Y-152400000D03*
D11*
X153035000Y-159512000D03*
D12*
X153035000Y-162052000D03*
X153035000Y-164592000D03*
X153035000Y-167132000D03*
D13*
X107315000Y-151765000D03*
D14*
X104775000Y-151765000D03*
X102235000Y-151765000D03*
D11*
X96774000Y-129032000D03*
D12*
X96774000Y-131572000D03*
X96774000Y-134112000D03*
X96774000Y-136652000D03*
X96774000Y-139192000D03*
X96774000Y-141732000D03*
X96774000Y-144272000D03*
X96774000Y-146812000D03*
X96774000Y-149352000D03*
X96774000Y-151892000D03*
X96774000Y-154432000D03*
X96774000Y-156972000D03*
X96774000Y-159512000D03*
X96774000Y-162052000D03*
X96774000Y-164592000D03*
X96774000Y-167132000D03*
X96774000Y-169672000D03*
D11*
X170815000Y-34290000D03*
D12*
X170815000Y-36830000D03*
X170815000Y-39370000D03*
X170815000Y-41910000D03*
X170815000Y-44450000D03*
X170815000Y-46990000D03*
D11*
X221615000Y-43180000D03*
D12*
X221615000Y-45720000D03*
X221615000Y-48260000D03*
X221615000Y-50800000D03*
D11*
X221615000Y-57912000D03*
D12*
X221615000Y-60452000D03*
X221615000Y-62992000D03*
X221615000Y-65532000D03*
D13*
X175895000Y-50165000D03*
D14*
X173355000Y-50165000D03*
X170815000Y-50165000D03*
D11*
X165354000Y-27432000D03*
D12*
X165354000Y-29972000D03*
X165354000Y-32512000D03*
X165354000Y-35052000D03*
X165354000Y-37592000D03*
X165354000Y-40132000D03*
X165354000Y-42672000D03*
X165354000Y-45212000D03*
X165354000Y-47752000D03*
X165354000Y-50292000D03*
X165354000Y-52832000D03*
X165354000Y-55372000D03*
X165354000Y-57912000D03*
X165354000Y-60452000D03*
X165354000Y-62992000D03*
X165354000Y-65532000D03*
X165354000Y-68072000D03*
D11*
X170815000Y-85090000D03*
D12*
X170815000Y-87630000D03*
X170815000Y-90170000D03*
X170815000Y-92710000D03*
X170815000Y-95250000D03*
X170815000Y-97790000D03*
D11*
X221615000Y-93980000D03*
D12*
X221615000Y-96520000D03*
X221615000Y-99060000D03*
X221615000Y-101600000D03*
D11*
X221615000Y-108712000D03*
D12*
X221615000Y-111252000D03*
X221615000Y-113792000D03*
X221615000Y-116332000D03*
D13*
X175895000Y-100965000D03*
D14*
X173355000Y-100965000D03*
X170815000Y-100965000D03*
D11*
X165354000Y-78232000D03*
D12*
X165354000Y-80772000D03*
X165354000Y-83312000D03*
X165354000Y-85852000D03*
X165354000Y-88392000D03*
X165354000Y-90932000D03*
X165354000Y-93472000D03*
X165354000Y-96012000D03*
X165354000Y-98552000D03*
X165354000Y-101092000D03*
X165354000Y-103632000D03*
X165354000Y-106172000D03*
X165354000Y-108712000D03*
X165354000Y-111252000D03*
X165354000Y-113792000D03*
X165354000Y-116332000D03*
X165354000Y-118872000D03*
D11*
X170815000Y-135890000D03*
D12*
X170815000Y-138430000D03*
X170815000Y-140970000D03*
X170815000Y-143510000D03*
X170815000Y-146050000D03*
X170815000Y-148590000D03*
D11*
X221615000Y-144780000D03*
D12*
X221615000Y-147320000D03*
X221615000Y-149860000D03*
X221615000Y-152400000D03*
D11*
X221615000Y-159512000D03*
D12*
X221615000Y-162052000D03*
X221615000Y-164592000D03*
X221615000Y-167132000D03*
D13*
X175895000Y-151765000D03*
D14*
X173355000Y-151765000D03*
X170815000Y-151765000D03*
D11*
X165354000Y-129032000D03*
D12*
X165354000Y-131572000D03*
X165354000Y-134112000D03*
X165354000Y-136652000D03*
X165354000Y-139192000D03*
X165354000Y-141732000D03*
X165354000Y-144272000D03*
X165354000Y-146812000D03*
X165354000Y-149352000D03*
X165354000Y-151892000D03*
X165354000Y-154432000D03*
X165354000Y-156972000D03*
X165354000Y-159512000D03*
X165354000Y-162052000D03*
X165354000Y-164592000D03*
X165354000Y-167132000D03*
X165354000Y-169672000D03*
M02*
