M48
;DRILL file {KiCad (2015-09-17 BZR 6202)-product} date Saturday, October 24, 2015 'PMt' 02:33:42 PM
;FORMAT={-:-/ absolute / inch / decimal}
FMAT,2
INCH,TZ
T1C0.016
T2C0.032
T3C0.040
%
G90
G05
M72
T1
X1.42Y-1.5786
X1.42Y-3.5786
X1.42Y-5.5786
X1.525Y-1.8
X1.525Y-3.8
X1.525Y-5.8
X1.56Y-1.4
X1.56Y-3.4
X1.56Y-5.4
X1.625Y-1.425
X1.625Y-3.425
X1.625Y-5.425
X1.7Y-1.68
X1.7Y-3.68
X1.7Y-5.68
X1.81Y-1.27
X1.81Y-3.27
X1.81Y-5.27
X1.86Y-1.42
X1.86Y-1.75
X1.86Y-3.42
X1.86Y-3.75
X1.86Y-5.42
X1.86Y-5.75
X1.93Y-2.33
X1.93Y-4.33
X1.93Y-6.33
X1.99Y-1.2122
X1.99Y-1.34
X1.99Y-3.2122
X1.99Y-3.34
X1.99Y-5.2122
X1.99Y-5.34
X2.Y-1.71
X2.Y-3.71
X2.Y-5.71
X2.01Y-2.24
X2.01Y-4.24
X2.01Y-6.24
X2.04Y-1.45
X2.04Y-3.45
X2.04Y-5.45
X2.05Y-1.21
X2.05Y-3.21
X2.05Y-5.21
X2.1Y-1.21
X2.1Y-3.21
X2.1Y-5.21
X2.15Y-1.21
X2.15Y-3.21
X2.15Y-5.21
X2.16Y-1.46
X2.16Y-3.46
X2.16Y-5.46
X2.2Y-1.46
X2.2Y-3.46
X2.2Y-5.46
X2.21Y-2.02
X2.21Y-4.02
X2.21Y-6.02
X2.225Y-1.2
X2.225Y-3.2
X2.225Y-5.2
X2.24Y-1.46
X2.24Y-3.46
X2.24Y-5.46
X2.3Y-1.45
X2.3Y-1.7
X2.3Y-1.9
X2.3Y-3.45
X2.3Y-3.7
X2.3Y-3.9
X2.3Y-5.45
X2.3Y-5.7
X2.3Y-5.9
X2.42Y-2.31
X2.42Y-2.37
X2.42Y-4.31
X2.42Y-4.37
X2.42Y-6.31
X2.42Y-6.37
X2.49Y-2.37
X2.49Y-4.37
X2.49Y-6.37
X2.74Y-1.61
X2.74Y-3.61
X2.74Y-5.61
X4.12Y-1.5786
X4.12Y-3.5786
X4.12Y-5.5786
X4.225Y-1.8
X4.225Y-3.8
X4.225Y-5.8
X4.26Y-1.4
X4.26Y-3.4
X4.26Y-5.4
X4.325Y-1.425
X4.325Y-3.425
X4.325Y-5.425
X4.4Y-1.68
X4.4Y-3.68
X4.4Y-5.68
X4.51Y-1.27
X4.51Y-3.27
X4.51Y-5.27
X4.56Y-1.42
X4.56Y-1.75
X4.56Y-3.42
X4.56Y-3.75
X4.56Y-5.42
X4.56Y-5.75
X4.63Y-2.33
X4.63Y-4.33
X4.63Y-6.33
X4.69Y-1.2122
X4.69Y-1.34
X4.69Y-3.2122
X4.69Y-3.34
X4.69Y-5.2122
X4.69Y-5.34
X4.7Y-1.71
X4.7Y-3.71
X4.7Y-5.71
X4.71Y-2.24
X4.71Y-4.24
X4.71Y-6.24
X4.74Y-1.45
X4.74Y-3.45
X4.74Y-5.45
X4.75Y-1.21
X4.75Y-3.21
X4.75Y-5.21
X4.8Y-1.21
X4.8Y-3.21
X4.8Y-5.21
X4.85Y-1.21
X4.85Y-3.21
X4.85Y-5.21
X4.86Y-1.46
X4.86Y-3.46
X4.86Y-5.46
X4.9Y-1.46
X4.9Y-3.46
X4.9Y-5.46
X4.91Y-2.02
X4.91Y-4.02
X4.91Y-6.02
X4.925Y-1.2
X4.925Y-3.2
X4.925Y-5.2
X4.94Y-1.46
X4.94Y-3.46
X4.94Y-5.46
X5.Y-1.45
X5.Y-1.7
X5.Y-1.9
X5.Y-3.45
X5.Y-3.7
X5.Y-3.9
X5.Y-5.45
X5.Y-5.7
X5.Y-5.9
X5.12Y-2.31
X5.12Y-2.37
X5.12Y-4.31
X5.12Y-4.37
X5.12Y-6.31
X5.12Y-6.37
X5.19Y-2.37
X5.19Y-4.37
X5.19Y-6.37
X5.44Y-1.61
X5.44Y-3.61
X5.44Y-5.61
X6.82Y-1.5786
X6.82Y-3.5786
X6.82Y-5.5786
X6.925Y-1.8
X6.925Y-3.8
X6.925Y-5.8
X6.96Y-1.4
X6.96Y-3.4
X6.96Y-5.4
X7.025Y-1.425
X7.025Y-3.425
X7.025Y-5.425
X7.1Y-1.68
X7.1Y-3.68
X7.1Y-5.68
X7.21Y-1.27
X7.21Y-3.27
X7.21Y-5.27
X7.26Y-1.42
X7.26Y-1.75
X7.26Y-3.42
X7.26Y-3.75
X7.26Y-5.42
X7.26Y-5.75
X7.33Y-2.33
X7.33Y-4.33
X7.33Y-6.33
X7.39Y-1.2122
X7.39Y-1.34
X7.39Y-3.2122
X7.39Y-3.34
X7.39Y-5.2122
X7.39Y-5.34
X7.4Y-1.71
X7.4Y-3.71
X7.4Y-5.71
X7.41Y-2.24
X7.41Y-4.24
X7.41Y-6.24
X7.44Y-1.45
X7.44Y-3.45
X7.44Y-5.45
X7.45Y-1.21
X7.45Y-3.21
X7.45Y-5.21
X7.5Y-1.21
X7.5Y-3.21
X7.5Y-5.21
X7.55Y-1.21
X7.55Y-3.21
X7.55Y-5.21
X7.56Y-1.46
X7.56Y-3.46
X7.56Y-5.46
X7.6Y-1.46
X7.6Y-3.46
X7.6Y-5.46
X7.61Y-2.02
X7.61Y-4.02
X7.61Y-6.02
X7.625Y-1.2
X7.625Y-3.2
X7.625Y-5.2
X7.64Y-1.46
X7.64Y-3.46
X7.64Y-5.46
X7.7Y-1.45
X7.7Y-1.7
X7.7Y-1.9
X7.7Y-3.45
X7.7Y-3.7
X7.7Y-3.9
X7.7Y-5.45
X7.7Y-5.7
X7.7Y-5.9
X7.82Y-2.31
X7.82Y-2.37
X7.82Y-4.31
X7.82Y-4.37
X7.82Y-6.31
X7.82Y-6.37
X7.89Y-2.37
X7.89Y-4.37
X7.89Y-6.37
X8.14Y-1.61
X8.14Y-3.61
X8.14Y-5.61
T2
X1.325Y-1.975
X1.325Y-3.975
X1.325Y-5.975
X1.425Y-1.975
X1.425Y-3.975
X1.425Y-5.975
X1.525Y-1.975
X1.525Y-3.975
X1.525Y-5.975
X4.025Y-1.975
X4.025Y-3.975
X4.025Y-5.975
X4.125Y-1.975
X4.125Y-3.975
X4.125Y-5.975
X4.225Y-1.975
X4.225Y-3.975
X4.225Y-5.975
X6.725Y-1.975
X6.725Y-3.975
X6.725Y-5.975
X6.825Y-1.975
X6.825Y-3.975
X6.825Y-5.975
X6.925Y-1.975
X6.925Y-3.975
X6.925Y-5.975
T3
X1.11Y-1.08
X1.11Y-1.18
X1.11Y-1.28
X1.11Y-1.38
X1.11Y-1.48
X1.11Y-1.58
X1.11Y-1.68
X1.11Y-1.78
X1.11Y-1.88
X1.11Y-1.98
X1.11Y-2.08
X1.11Y-2.18
X1.11Y-2.28
X1.11Y-2.38
X1.11Y-2.48
X1.11Y-2.58
X1.11Y-2.68
X1.11Y-3.08
X1.11Y-3.18
X1.11Y-3.28
X1.11Y-3.38
X1.11Y-3.48
X1.11Y-3.58
X1.11Y-3.68
X1.11Y-3.78
X1.11Y-3.88
X1.11Y-3.98
X1.11Y-4.08
X1.11Y-4.18
X1.11Y-4.28
X1.11Y-4.38
X1.11Y-4.48
X1.11Y-4.58
X1.11Y-4.68
X1.11Y-5.08
X1.11Y-5.18
X1.11Y-5.28
X1.11Y-5.38
X1.11Y-5.48
X1.11Y-5.58
X1.11Y-5.68
X1.11Y-5.78
X1.11Y-5.88
X1.11Y-5.98
X1.11Y-6.08
X1.11Y-6.18
X1.11Y-6.28
X1.11Y-6.38
X1.11Y-6.48
X1.11Y-6.58
X1.11Y-6.68
X1.325Y-1.35
X1.325Y-1.45
X1.325Y-1.55
X1.325Y-1.65
X1.325Y-1.75
X1.325Y-1.85
X1.325Y-3.35
X1.325Y-3.45
X1.325Y-3.55
X1.325Y-3.65
X1.325Y-3.75
X1.325Y-3.85
X1.325Y-5.35
X1.325Y-5.45
X1.325Y-5.55
X1.325Y-5.65
X1.325Y-5.75
X1.325Y-5.85
X3.325Y-1.7
X3.325Y-1.8
X3.325Y-1.9
X3.325Y-2.
X3.325Y-2.28
X3.325Y-2.38
X3.325Y-2.48
X3.325Y-2.58
X3.325Y-3.7
X3.325Y-3.8
X3.325Y-3.9
X3.325Y-4.
X3.325Y-4.28
X3.325Y-4.38
X3.325Y-4.48
X3.325Y-4.58
X3.325Y-5.7
X3.325Y-5.8
X3.325Y-5.9
X3.325Y-6.
X3.325Y-6.28
X3.325Y-6.38
X3.325Y-6.48
X3.325Y-6.58
X3.81Y-1.08
X3.81Y-1.18
X3.81Y-1.28
X3.81Y-1.38
X3.81Y-1.48
X3.81Y-1.58
X3.81Y-1.68
X3.81Y-1.78
X3.81Y-1.88
X3.81Y-1.98
X3.81Y-2.08
X3.81Y-2.18
X3.81Y-2.28
X3.81Y-2.38
X3.81Y-2.48
X3.81Y-2.58
X3.81Y-2.68
X3.81Y-3.08
X3.81Y-3.18
X3.81Y-3.28
X3.81Y-3.38
X3.81Y-3.48
X3.81Y-3.58
X3.81Y-3.68
X3.81Y-3.78
X3.81Y-3.88
X3.81Y-3.98
X3.81Y-4.08
X3.81Y-4.18
X3.81Y-4.28
X3.81Y-4.38
X3.81Y-4.48
X3.81Y-4.58
X3.81Y-4.68
X3.81Y-5.08
X3.81Y-5.18
X3.81Y-5.28
X3.81Y-5.38
X3.81Y-5.48
X3.81Y-5.58
X3.81Y-5.68
X3.81Y-5.78
X3.81Y-5.88
X3.81Y-5.98
X3.81Y-6.08
X3.81Y-6.18
X3.81Y-6.28
X3.81Y-6.38
X3.81Y-6.48
X3.81Y-6.58
X3.81Y-6.68
X4.025Y-1.35
X4.025Y-1.45
X4.025Y-1.55
X4.025Y-1.65
X4.025Y-1.75
X4.025Y-1.85
X4.025Y-3.35
X4.025Y-3.45
X4.025Y-3.55
X4.025Y-3.65
X4.025Y-3.75
X4.025Y-3.85
X4.025Y-5.35
X4.025Y-5.45
X4.025Y-5.55
X4.025Y-5.65
X4.025Y-5.75
X4.025Y-5.85
X6.025Y-1.7
X6.025Y-1.8
X6.025Y-1.9
X6.025Y-2.
X6.025Y-2.28
X6.025Y-2.38
X6.025Y-2.48
X6.025Y-2.58
X6.025Y-3.7
X6.025Y-3.8
X6.025Y-3.9
X6.025Y-4.
X6.025Y-4.28
X6.025Y-4.38
X6.025Y-4.48
X6.025Y-4.58
X6.025Y-5.7
X6.025Y-5.8
X6.025Y-5.9
X6.025Y-6.
X6.025Y-6.28
X6.025Y-6.38
X6.025Y-6.48
X6.025Y-6.58
X6.51Y-1.08
X6.51Y-1.18
X6.51Y-1.28
X6.51Y-1.38
X6.51Y-1.48
X6.51Y-1.58
X6.51Y-1.68
X6.51Y-1.78
X6.51Y-1.88
X6.51Y-1.98
X6.51Y-2.08
X6.51Y-2.18
X6.51Y-2.28
X6.51Y-2.38
X6.51Y-2.48
X6.51Y-2.58
X6.51Y-2.68
X6.51Y-3.08
X6.51Y-3.18
X6.51Y-3.28
X6.51Y-3.38
X6.51Y-3.48
X6.51Y-3.58
X6.51Y-3.68
X6.51Y-3.78
X6.51Y-3.88
X6.51Y-3.98
X6.51Y-4.08
X6.51Y-4.18
X6.51Y-4.28
X6.51Y-4.38
X6.51Y-4.48
X6.51Y-4.58
X6.51Y-4.68
X6.51Y-5.08
X6.51Y-5.18
X6.51Y-5.28
X6.51Y-5.38
X6.51Y-5.48
X6.51Y-5.58
X6.51Y-5.68
X6.51Y-5.78
X6.51Y-5.88
X6.51Y-5.98
X6.51Y-6.08
X6.51Y-6.18
X6.51Y-6.28
X6.51Y-6.38
X6.51Y-6.48
X6.51Y-6.58
X6.51Y-6.68
X6.725Y-1.35
X6.725Y-1.45
X6.725Y-1.55
X6.725Y-1.65
X6.725Y-1.75
X6.725Y-1.85
X6.725Y-3.35
X6.725Y-3.45
X6.725Y-3.55
X6.725Y-3.65
X6.725Y-3.75
X6.725Y-3.85
X6.725Y-5.35
X6.725Y-5.45
X6.725Y-5.55
X6.725Y-5.65
X6.725Y-5.75
X6.725Y-5.85
X8.725Y-1.7
X8.725Y-1.8
X8.725Y-1.9
X8.725Y-2.
X8.725Y-2.28
X8.725Y-2.38
X8.725Y-2.48
X8.725Y-2.58
X8.725Y-3.7
X8.725Y-3.8
X8.725Y-3.9
X8.725Y-4.
X8.725Y-4.28
X8.725Y-4.38
X8.725Y-4.48
X8.725Y-4.58
X8.725Y-5.7
X8.725Y-5.8
X8.725Y-5.9
X8.725Y-6.
X8.725Y-6.28
X8.725Y-6.38
X8.725Y-6.48
X8.725Y-6.58
T0
M30
